<svg data-v-423bf9ae="" xmlns="http://www.w3.org/2000/svg" viewBox="0 0 375.1685558117992 163" class="iconAbove"><!----><!----><!----><g data-v-423bf9ae="" id="102e1c47-1fae-4074-981c-6f5294bdcca7" fill="#04291D" transform="matrix(4.815409295048693,0,0,4.815409295048693,-1.5409267401707893,101.3146048437853)"><path d="M5.10 0.84C3.23 0.84 1.33 2.21 1.33 4.37C1.33 5.57 2.14 6.65 3.53 7.34C4.90 8.02 6.13 8.40 6.13 9.24C6.13 10.32 5.04 10.37 4.47 10.37C3.18 10.37 1.64 9.07 1.64 9.07L0.32 11.28C0.32 11.28 1.96 12.81 4.66 12.81C6.92 12.81 9.02 11.84 9.02 9.09C9.02 7.57 7.60 6.48 6.31 5.94C5.00 5.38 3.91 4.91 3.91 4.27C3.91 3.64 4.38 3.23 5.28 3.23C6.47 3.23 7.62 4.03 7.62 4.03L8.68 1.93C8.68 1.93 7.20 0.84 5.10 0.84ZM10.67 5.42L9.63 5.42L9.63 7.31L10.67 7.31L10.67 10.07C10.67 11.34 11.14 12.81 13.12 12.81C14.14 12.81 14.94 12.36 14.94 12.36L14.32 10.36C14.32 10.36 14.03 10.58 13.71 10.58C13.31 10.58 13.15 10.26 13.15 9.59L13.15 7.31L14.66 7.31L14.66 5.42L13.15 5.42L13.15 2.74L10.67 2.74ZM15.23 9.02C15.23 11.12 16.70 12.81 18.80 12.81C19.78 12.81 20.62 12.38 21.15 11.79L21.18 11.79L21.18 12.60L23.63 12.60L23.63 5.42L21.15 5.42L21.15 6.10C20.57 5.53 19.77 5.21 18.80 5.21C16.70 5.21 15.23 6.92 15.23 9.02ZM17.86 9.02C17.86 8.02 18.61 7.32 19.54 7.32C20.47 7.32 21.21 8.02 21.21 9.02C21.21 10.00 20.51 10.70 19.54 10.70C18.54 10.70 17.86 10.00 17.86 9.02ZM25.73 5.42L24.70 5.42L24.70 7.31L25.73 7.31L25.73 12.60L28.21 12.60L28.21 7.31L29.86 7.31L29.86 5.42L28.21 5.42L28.21 3.96C28.21 2.97 28.35 2.55 28.98 2.55C29.39 2.55 29.72 2.74 29.72 2.74L30.59 0.99C30.59 0.99 29.81 0.35 28.55 0.35C26.75 0.35 25.75 1.79 25.73 3.89ZM30.98 5.42L29.95 5.42L29.95 7.31L30.98 7.31L30.98 12.60L33.46 12.60L33.46 7.31L35.11 7.31L35.11 5.42L33.46 5.42L33.46 3.96C33.46 2.97 33.60 2.55 34.23 2.55C34.64 2.55 34.97 2.74 34.97 2.74L35.84 0.99C35.84 0.99 35.06 0.35 33.80 0.35C32.00 0.35 31.00 1.79 30.98 3.89ZM38.23 3.36L40.98 3.36L40.98 12.60L43.61 12.60L43.61 3.36L46.35 3.36L46.35 1.05L38.23 1.05ZM46.40 12.60L48.87 12.60L48.87 8.82C48.87 8.64 49.06 7.36 50.34 7.36C51.17 7.36 51.63 7.76 51.63 7.76L52.67 5.66C52.67 5.66 52.02 5.21 51.10 5.21C49.69 5.21 48.90 6.45 48.90 6.45L48.87 6.45L48.87 5.42L46.40 5.42ZM52.74 9.02C52.74 11.12 54.21 12.81 56.31 12.81C57.29 12.81 58.13 12.38 58.66 11.79L58.69 11.79L58.69 12.60L61.14 12.60L61.14 5.42L58.66 5.42L58.66 6.10C58.07 5.53 57.27 5.21 56.31 5.21C54.21 5.21 52.74 6.92 52.74 9.02ZM55.37 9.02C55.37 8.02 56.11 7.32 57.05 7.32C57.97 7.32 58.72 8.02 58.72 9.02C58.72 10.00 58.02 10.70 57.05 10.70C56.04 10.70 55.37 10.00 55.37 9.02ZM66.64 7.24C67.38 7.24 67.84 7.57 67.84 7.57L68.68 5.88C68.68 5.88 67.87 5.21 66.28 5.21C64.19 5.21 62.30 6.92 62.30 9.03C62.30 11.13 64.20 12.81 66.28 12.81C67.87 12.81 68.68 12.17 68.68 12.17L67.84 10.44C67.84 10.44 67.38 10.78 66.64 10.78C65.70 10.78 64.93 10.00 64.93 9.00C64.93 8.02 65.70 7.24 66.64 7.24ZM77.90 5.42L74.68 5.42L72.17 7.92L72.17 0.56L69.69 0.56L69.69 12.60L72.17 12.60L72.17 9.73L75.04 12.60L78.23 12.60L74.48 8.85Z"></path></g><defs data-v-423bf9ae=""><linearGradient data-v-423bf9ae="" gradientTransform="rotate(25)" id="92c8bde0-4b58-44e9-b5ac-6cde16c9e601" x1="0%" y1="0%" x2="100%" y2="0%"><stop data-v-423bf9ae="" offset="0%" style="stop-color: rgb(1, 105, 90); stop-opacity: 1;"></stop><stop data-v-423bf9ae="" offset="100%" style="stop-color: rgb(44, 194, 111); stop-opacity: 1;"></stop></linearGradient></defs><g data-v-423bf9ae="" id="e4df9d31-4993-4da1-b339-4878195b3741" transform="matrix(4.070555845841735,0,0,4.070555845841735,81.88026349600878,1.0000045262128978)" stroke="none" fill="url(#92c8bde0-4b58-44e9-b5ac-6cde16c9e601)"><path d="M36.24 4.88a4.88 4.88 0 1 1 4.88 4.88 4.88 4.88 0 0 1-4.88-4.88zm5.79 6.84c-5.59 0-10.12 4.15-10.12 9.28a5.26 5.26 0 0 0 .07.86c0 .23.25.22.48.22h19.13c.23 0 .45 0 .48-.22a6.51 6.51 0 0 0 .07-1c.02-5.09-4.51-9.15-10.06-9.15zM22.5 22.07a7.92 7.92 0 0 0 0-.85 10.46 10.46 0 0 0-2.84-7.06 10.59 10.59 0 0 1 6.85-2.45 10.76 10.76 0 0 1 6.25 2 10.12 10.12 0 0 0-3.16 7.28v1.12h-7.17zm4-12.31a4.88 4.88 0 1 0-4.88-4.88 4.88 4.88 0 0 0 4.92 4.88zM6.12 4.88A4.88 4.88 0 1 1 11 9.76a4.88 4.88 0 0 1-4.85-4.88zm4 6.84C4.53 11.72 0 15.87 0 21a5.26 5.26 0 0 0 .07.86c0 .23.25.22.48.22h19.13c.23 0 .45 0 .48-.22a6.51 6.51 0 0 0 .07-1c.02-5.09-4.51-9.15-10.15-9.15z"></path></g><!----></svg>